<svg xmlns="http://www.w3.org/2000/svg" width="64" height="58" viewBox="0 0 64 58">
  <metadata><?xpacket begin="﻿" id="W5M0MpCehiHzreSzNTczkc9d"?>
<x:xmpmeta xmlns:x="adobe:ns:meta/" x:xmptk="Adobe XMP Core 5.6-c142 79.160924, 2017/07/13-01:06:39        ">
   <rdf:RDF xmlns:rdf="http://www.w3.org/1999/02/22-rdf-syntax-ns#">
      <rdf:Description rdf:about=""/>
   </rdf:RDF>
</x:xmpmeta>
                                                                                                    
                                                                                                    
                                                                                                    
                                                                                                    
                                                                                                    
                                                                                                    
                                                                                                    
                                                                                                    
                                                                                                    
                                                                                                    
                                                                                                    
                                                                                                    
                                                                                                    
                                                                                                    
                                                                                                    
                                                                                                    
                                                                                                    
                                                                                                    
                                                                                                    
                                                                                                    
                           
<?xpacket end="w"?></metadata>
<defs>
    <style>
      .cls-1 {
        fill: #a0a3a7;
        fill-rule: evenodd;
      }
    </style>
  </defs>
  <path id="No_Content_64px" class="cls-1" d="M484,881h28v38H484V881Zm1,1h26v36H485V882Zm-18.73,8,9.72,2.906L475.73,894l-9.72-2.906ZM488,887h20v1H488v-1Zm0,8h20v1H488v-1Zm0,9h20v1H488v-1Zm0,8h20v1H488v-1Zm-22-3.944,9.689-2.045L476,906.944l-9.689,2.045ZM529.73,909l-9.72-2.906,0.26-1.084,9.72,2.906ZM530,890.944l-9.689,2.045L520,892.056l9.689-2.045ZM475,928.31L481.31,922,482,922.69,475.69,929ZM475.69,871L482,877.31,481.31,878,475,871.69ZM521,871.69L514.69,878,514,877.31,520.31,871ZM520.31,929L514,922.69,514.69,922,521,928.31Z" transform="translate(-466 -871)"/>
</svg>