<svg width="250" height="30" viewBox="0 0 250 30" fill="none" xmlns="http://www.w3.org/2000/svg">
<path d="M12.716 29.612C10.772 29.612 8.876 29.3 7.028 28.676C5.18 28.052 3.608 26.996 2.312 25.508C1.016 24.02 0.284 22.076 0.116 19.676H6.776C7.568 22.7 9.536 24.212 12.68 24.212C13.88 24.212 14.888 23.96 15.704 23.456C16.544 22.928 16.964 22.16 16.964 21.152C16.964 20.48 16.7 19.928 16.172 19.496C15.668 19.064 15.02 18.728 14.228 18.488C13.46 18.248 12.368 17.972 10.952 17.66C8.816 17.18 7.076 16.688 5.732 16.184C4.412 15.68 3.26 14.888 2.276 13.808C1.316 12.704 0.836 11.216 0.836 9.344C0.836 7.52 1.28 5.984 2.168 4.736C3.08 3.464 4.304 2.516 5.84 1.892C7.376 1.268 9.104 0.955998 11.024 0.955998C12.992 0.955998 14.816 1.304 16.496 2C18.176 2.672 19.568 3.704 20.672 5.096C21.776 6.464 22.472 8.132 22.76 10.1H16.1C15.764 8.924 15.14 8.012 14.228 7.364C13.34 6.692 12.224 6.356 10.88 6.356C9.872 6.356 9.008 6.56 8.288 6.968C7.592 7.376 7.244 7.988 7.244 8.804C7.244 9.428 7.484 9.944 7.964 10.352C8.468 10.736 9.092 11.048 9.836 11.288C10.604 11.528 11.672 11.804 13.04 12.116C15.176 12.596 16.94 13.1 18.332 13.628C19.724 14.156 20.924 14.996 21.932 16.148C22.94 17.3 23.444 18.86 23.444 20.828C23.444 22.628 23.012 24.188 22.148 25.508C21.284 26.828 20.048 27.848 18.44 28.568C16.832 29.264 14.924 29.612 12.716 29.612ZM26.7889 29V1.532H45.5449V7.292H33.2329V12.404H44.3569V18.128H33.2329V23.24H45.5449V29H26.7889ZM61.9618 29.612C58.9618 29.612 56.4298 28.964 54.3658 27.668C52.3018 26.372 50.7658 24.644 49.7578 22.484C48.7498 20.3 48.2458 17.888 48.2458 15.248C48.2458 12.608 48.7498 10.208 49.7578 8.048C50.7658 5.888 52.2898 4.172 54.3298 2.9C56.3938 1.604 58.9378 0.955998 61.9618 0.955998C64.9618 0.955998 67.4818 1.604 69.5218 2.9C71.5858 4.172 73.1218 5.888 74.1298 8.048C75.1378 10.208 75.6418 12.608 75.6418 15.248C75.6418 17.888 75.1378 20.3 74.1298 22.484C73.1218 24.644 71.5858 26.372 69.5218 27.668C67.4818 28.964 64.9618 29.612 61.9618 29.612ZM61.9618 23.852C64.0978 23.852 65.7778 23.084 67.0018 21.548C68.2258 19.988 68.8378 17.888 68.8378 15.248C68.8378 12.632 68.2258 10.556 67.0018 9.02C65.7778 7.484 64.0978 6.716 61.9618 6.716C59.8258 6.716 58.1338 7.484 56.8858 9.02C55.6618 10.556 55.0498 12.632 55.0498 15.248C55.0498 17.888 55.6618 19.988 56.8858 21.548C58.1338 23.084 59.8258 23.852 61.9618 23.852ZM99.9035 29.612C97.9595 29.612 96.0635 29.3 94.2155 28.676C92.3675 28.052 90.7955 26.996 89.4995 25.508C88.2035 24.02 87.4715 22.076 87.3035 19.676H93.9635C94.7555 22.7 96.7235 24.212 99.8675 24.212C101.068 24.212 102.076 23.96 102.892 23.456C103.732 22.928 104.152 22.16 104.152 21.152C104.152 20.48 103.888 19.928 103.36 19.496C102.856 19.064 102.208 18.728 101.416 18.488C100.648 18.248 99.5555 17.972 98.1395 17.66C96.0035 17.18 94.2635 16.688 92.9195 16.184C91.5995 15.68 90.4475 14.888 89.4635 13.808C88.5035 12.704 88.0235 11.216 88.0235 9.344C88.0235 7.52 88.4675 5.984 89.3555 4.736C90.2675 3.464 91.4915 2.516 93.0275 1.892C94.5635 1.268 96.2915 0.955998 98.2115 0.955998C100.18 0.955998 102.004 1.304 103.684 2C105.364 2.672 106.756 3.704 107.86 5.096C108.964 6.464 109.66 8.132 109.948 10.1H103.288C102.952 8.924 102.328 8.012 101.416 7.364C100.528 6.692 99.4115 6.356 98.0675 6.356C97.0595 6.356 96.1955 6.56 95.4755 6.968C94.7795 7.376 94.4315 7.988 94.4315 8.804C94.4315 9.428 94.6715 9.944 95.1515 10.352C95.6555 10.736 96.2795 11.048 97.0235 11.288C97.7915 11.528 98.8595 11.804 100.228 12.116C102.364 12.596 104.128 13.1 105.52 13.628C106.912 14.156 108.112 14.996 109.12 16.148C110.128 17.3 110.632 18.86 110.632 20.828C110.632 22.628 110.2 24.188 109.336 25.508C108.472 26.828 107.236 27.848 105.628 28.568C104.02 29.264 102.112 29.612 99.9035 29.612ZM126.684 29.612C123.684 29.612 121.152 28.964 119.088 27.668C117.024 26.372 115.488 24.644 114.48 22.484C113.472 20.3 112.968 17.888 112.968 15.248C112.968 12.608 113.472 10.208 114.48 8.048C115.488 5.888 117.012 4.172 119.052 2.9C121.116 1.604 123.66 0.955998 126.684 0.955998C130.212 0.955998 133.032 1.844 135.144 3.62C137.256 5.396 138.492 7.796 138.852 10.82H131.796C131.604 9.452 131.028 8.432 130.068 7.76C129.132 7.064 127.956 6.716 126.54 6.716C124.38 6.716 122.712 7.484 121.536 9.02C120.36 10.532 119.772 12.608 119.772 15.248C119.772 17.888 120.36 19.988 121.536 21.548C122.712 23.084 124.38 23.852 126.54 23.852C127.956 23.852 129.132 23.504 130.068 22.808C131.004 22.112 131.58 21.068 131.796 19.676H138.852C138.492 22.724 137.256 25.148 135.144 26.948C133.032 28.724 130.212 29.612 126.684 29.612ZM142.031 29V1.532H148.475V29H142.031ZM152.824 29V1.532H171.58V7.292H159.268V12.404H170.392V18.128H159.268V23.24H171.58V29H152.824ZM175.289 1.532H181.841L190.553 15.284C190.865 15.812 191.129 16.316 191.345 16.796C191.585 17.276 191.849 17.996 192.137 18.956L192.713 18.812C192.569 18.14 192.473 17.576 192.425 17.12C192.401 16.664 192.389 16.064 192.389 15.32V1.532H198.833V29H192.281L183.497 15.032C183.185 14.552 182.921 14.084 182.705 13.628C182.489 13.148 182.249 12.44 181.985 11.504L181.409 11.648C181.553 12.32 181.637 12.884 181.661 13.34C181.709 13.772 181.733 14.36 181.733 15.104V29H175.289V1.532ZM215.876 29.612C212.876 29.612 210.344 28.964 208.28 27.668C206.216 26.372 204.68 24.644 203.672 22.484C202.664 20.3 202.16 17.888 202.16 15.248C202.16 12.608 202.664 10.208 203.672 8.048C204.68 5.888 206.204 4.172 208.244 2.9C210.308 1.604 212.852 0.955998 215.876 0.955998C219.404 0.955998 222.224 1.844 224.336 3.62C226.448 5.396 227.684 7.796 228.044 10.82H220.988C220.796 9.452 220.22 8.432 219.26 7.76C218.324 7.064 217.148 6.716 215.732 6.716C213.572 6.716 211.904 7.484 210.728 9.02C209.552 10.532 208.964 12.608 208.964 15.248C208.964 17.888 209.552 19.988 210.728 21.548C211.904 23.084 213.572 23.852 215.732 23.852C217.148 23.852 218.324 23.504 219.26 22.808C220.196 22.112 220.772 21.068 220.988 19.676H228.044C227.684 22.724 226.448 25.148 224.336 26.948C222.224 28.724 219.404 29.612 215.876 29.612ZM231.223 29V1.532H249.979V7.292H237.667V12.404H248.791V18.128H237.667V23.24H249.979V29H231.223Z" fill="#FF725E"/>
</svg>
