<svg width="493" height="290" viewBox="0 0 493 290" fill="none" xmlns="http://www.w3.org/2000/svg">
<path d="M226.804 8.32611L7.86 227.274C2.792 232.338 0 239.098 0 246.306C0 253.514 2.792 260.274 7.86 265.338L23.98 281.462C34.484 291.954 51.556 291.954 62.044 281.462L245.9 97.6061L429.96 281.666C435.028 286.73 441.784 289.526 448.988 289.526C456.2 289.526 462.956 286.73 468.028 281.666L484.144 265.542C489.212 260.474 492.004 253.718 492.004 246.51C492.004 239.302 489.212 232.542 484.144 227.478L265 8.32611C259.916 3.25011 253.128 0.462119 245.912 0.478119C238.668 0.462119 231.884 3.25011 226.804 8.32611Z" fill="#FF725E"/>
</svg>
