<svg width="493" height="290" viewBox="0 0 493 290" fill="none" xmlns="http://www.w3.org/2000/svg">
<path d="M227.623 282.069L8.67873 63.1207C3.61073 58.0567 0.818726 51.2967 0.818726 44.0887C0.818726 36.8807 3.61073 30.1207 8.67873 25.0567L24.7987 8.93266C35.3027 -1.55934 52.3747 -1.55934 62.8627 8.93266L246.719 192.789L430.779 8.72865C435.847 3.66465 442.603 0.868652 449.807 0.868652C457.019 0.868652 463.775 3.66465 468.847 8.72865L484.963 24.8527C490.031 29.9207 492.823 36.6767 492.823 43.8847C492.823 51.0927 490.031 57.8527 484.963 62.9167L265.819 282.069C260.735 287.145 253.947 289.933 246.731 289.917C239.487 289.933 232.703 287.145 227.623 282.069Z" fill="#FF725E"/>
</svg>
